<?xml version="1.0" encoding="UTF-8"?>
<svg xmlns="http://www.w3.org/2000/svg" width="110" height="19" viewBox="0 0 110 19" fill="none">
  <path d="M8.68359 18.2031C7.56641 18.2031 6.51693 17.9831 5.53516 17.543C4.57031 17.1029 3.71549 16.4935 2.9707 15.7148C2.24284 14.9362 1.66732 14.0475 1.24414 13.0488C0.837891 12.0332 0.634766 10.9583 0.634766 9.82422C0.634766 8.6224 0.846354 7.49674 1.26953 6.44727C1.70964 5.39779 2.31055 4.4668 3.07227 3.6543C3.83398 2.8418 4.71419 2.20703 5.71289 1.75C6.72852 1.29297 7.82031 1.06445 8.98828 1.06445C10.5117 1.06445 12.4753 1.3776 14.8789 2.00391C14.9297 2.02083 15.0059 2.57943 15.1074 3.67969C15.1751 4.52604 15.2259 5.11849 15.2598 5.45703C15.2936 5.79557 15.1159 5.96484 14.7266 5.96484C14.4896 5.96484 14.3034 5.91406 14.168 5.8125C14.1172 5.57552 14.041 5.33854 13.9395 5.10156C13.8548 4.86458 13.694 4.5599 13.457 4.1875C13.0339 3.57812 12.4414 3.11263 11.6797 2.79102C10.9349 2.4694 10.0716 2.30859 9.08984 2.30859C7.98958 2.30859 7.04167 2.61328 6.24609 3.22266C5.45052 3.8151 4.84115 4.64453 4.41797 5.71094C4.01172 6.76042 3.80859 7.97917 3.80859 9.36719C3.80859 10.569 4.02865 11.737 4.46875 12.8711C4.75651 13.6159 5.1543 14.3014 5.66211 14.9277C6.18685 15.5371 6.79622 16.028 7.49023 16.4004C8.20117 16.7559 8.97135 16.9336 9.80078 16.9336C10.8841 16.9336 11.6966 16.7728 12.2383 16.4512C12.4076 16.3327 12.4922 16.138 12.4922 15.8672L12.4668 14.0391V13.8613C12.4668 12.8288 12.4076 12.1432 12.2891 11.8047C12.2552 11.6523 12.1283 11.5339 11.9082 11.4492C11.6882 11.3477 11.4427 11.2799 11.1719 11.2461C10.901 11.1953 10.6641 11.1699 10.4609 11.1699C10.3932 11.1699 10.3594 11.043 10.3594 10.7891C10.3594 10.5521 10.3932 10.3997 10.4609 10.332C10.6641 10.332 11.1803 10.3574 12.0098 10.4082C12.8561 10.459 13.5247 10.4844 14.0156 10.4844L17.0879 10.332C17.1387 10.4844 17.1641 10.6283 17.1641 10.7637C17.1641 11.0514 17.1302 11.1953 17.0625 11.1953C16.9609 11.1953 16.7324 11.2461 16.377 11.3477C16.0384 11.4492 15.793 11.5339 15.6406 11.6016C15.4206 11.7201 15.3105 12.3379 15.3105 13.4551L15.3359 14.5215V15.1055C15.3359 15.3763 15.3783 15.6387 15.4629 15.8926C15.5475 16.1465 15.5898 16.2734 15.5898 16.2734C15.5898 16.5104 15.4036 16.7135 15.0312 16.8828C14.3711 17.1706 13.8717 17.3822 13.5332 17.5176C13.2116 17.6361 12.5938 17.7799 11.6797 17.9492C10.7826 18.1185 9.78385 18.2031 8.68359 18.2031ZM18.0659 18.0762C17.9982 18.0085 17.9644 17.89 17.9644 17.7207C17.9644 17.3991 17.9982 17.2383 18.0659 17.2383C18.2014 17.2383 18.396 17.2129 18.6499 17.1621C18.9038 17.1113 19.1408 17.0436 19.3609 16.959C19.5809 16.8574 19.7079 16.7643 19.7417 16.6797C19.8094 16.4089 19.8602 16.0957 19.8941 15.7402C19.9279 15.3848 19.9448 14.987 19.9448 14.5469V4.74609C19.9448 3.76432 19.8771 3.05339 19.7417 2.61328C19.7079 2.51172 19.5809 2.41862 19.3609 2.33398C19.1577 2.24935 18.9292 2.18164 18.6753 2.13086C18.4383 2.06315 18.2521 2.0293 18.1167 2.0293C18.049 2.0293 18.0152 1.90234 18.0152 1.64844C18.0152 1.3776 18.0321 1.22526 18.0659 1.19141L19.4878 1.26758C19.911 1.28451 20.2834 1.3099 20.605 1.34375C20.9435 1.36068 21.2228 1.36068 21.4429 1.34375L24.6929 1.19141C24.7437 1.34375 24.7691 1.47917 24.7691 1.59766C24.7691 1.88542 24.7352 2.0293 24.6675 2.0293C24.5659 2.0293 24.3882 2.06315 24.1343 2.13086C23.8804 2.19857 23.6349 2.27474 23.398 2.35938C23.1779 2.44401 23.051 2.52865 23.0171 2.61328C22.9494 2.88411 22.8986 3.20573 22.8648 3.57812C22.8309 3.93359 22.814 4.35677 22.814 4.84766V14.3945C22.814 15.3255 22.8902 16.0872 23.0425 16.6797C23.0764 16.7474 23.1948 16.832 23.398 16.9336C23.618 17.0182 23.8465 17.0944 24.0835 17.1621C24.3374 17.2129 24.5152 17.2383 24.6167 17.2383C24.6844 17.2383 24.7183 17.3991 24.7183 17.7207C24.7183 17.8223 24.7014 17.9408 24.6675 18.0762L21.4429 17.9238C20.8504 17.89 20.2411 17.8984 19.6148 17.9492C18.9885 18 18.4722 18.0423 18.0659 18.0762ZM25.7471 18.0762C25.6963 18.0254 25.6709 17.89 25.6709 17.6699C25.6709 17.3822 25.6963 17.2383 25.7471 17.2383C25.8995 17.2383 26.0941 17.2129 26.3311 17.1621C26.585 17.1113 26.822 17.0436 27.042 16.959C27.279 16.8743 27.4144 16.7812 27.4483 16.6797C27.5668 16.3411 27.626 15.571 27.626 14.3691V4.77148C27.626 3.73893 27.5668 3.04492 27.4483 2.68945C27.4144 2.55404 27.2875 2.44401 27.0674 2.35938C26.8643 2.25781 26.6273 2.18164 26.3565 2.13086C26.1026 2.08008 25.891 2.05469 25.7217 2.05469C25.654 2.05469 25.6202 1.92773 25.6202 1.67383C25.6202 1.43685 25.654 1.28451 25.7217 1.2168C26.2634 1.25065 26.8135 1.27604 27.3721 1.29297C27.9307 1.3099 28.4978 1.31836 29.0733 1.31836C29.8689 1.33529 31.2146 1.3099 33.1104 1.24219C34.0583 1.20833 34.8793 1.18294 35.5733 1.16602C36.2673 1.14909 36.8343 1.14062 37.2745 1.14062C37.3083 1.39453 37.3591 1.69922 37.4268 2.05469C37.4945 2.41016 37.5791 2.80794 37.6807 3.24805L38.0108 4.74609C37.9261 4.83073 37.7484 4.87305 37.4776 4.87305C37.2914 4.87305 37.1729 4.8138 37.1221 4.69531C36.5635 3.1888 35.4802 2.43555 33.8721 2.43555H32.5518C31.2823 2.43555 30.639 2.54557 30.6221 2.76562C30.5883 2.96875 30.5544 3.23958 30.5205 3.57812C30.5036 3.91667 30.4952 4.33138 30.4952 4.82227V8.80859C30.4952 8.91016 30.8676 8.96094 31.6123 8.96094H33.0088C33.9737 8.96094 34.5577 8.91862 34.7608 8.83398C34.947 8.74935 35.0909 8.45312 35.1924 7.94531C35.2432 7.72526 35.294 7.51367 35.3448 7.31055C35.3617 7.19206 35.4971 7.13281 35.751 7.13281C35.988 7.13281 36.1488 7.17513 36.2334 7.25977V12.0586C36.1657 12.1263 36.0049 12.1602 35.751 12.1602C35.531 12.1602 35.3955 12.0924 35.3448 11.957C35.2771 11.7201 35.2178 11.5254 35.167 11.373C35.1162 11.2038 35.0739 11.0599 35.0401 10.9414C34.9554 10.7552 34.9047 10.6536 34.8877 10.6367C34.8708 10.6029 34.7862 10.5352 34.6338 10.4336C34.3968 10.2982 33.6182 10.2305 32.2979 10.2305C31.0961 10.2305 30.4952 10.2982 30.4952 10.4336V14.4199C30.4952 15.3171 30.5883 16.0195 30.7745 16.5273C30.8252 16.6289 30.986 16.7389 31.2569 16.8574C31.5277 16.959 31.8155 17.0521 32.1202 17.1367C32.4418 17.2044 32.6618 17.2383 32.7803 17.2383C32.8649 17.2383 32.9073 17.3822 32.9073 17.6699C32.9073 17.8561 32.8819 17.9915 32.8311 18.0762C30.7998 17.9746 29.598 17.9238 29.2256 17.9238C28.7178 17.9238 28.1761 17.9408 27.6006 17.9746C27.0251 17.9915 26.5765 18.0169 26.2549 18.0508L25.7471 18.0762ZM43.2037 18.1016C43.136 18.0339 43.1021 17.8984 43.1021 17.6953C43.1021 17.3906 43.136 17.2383 43.2037 17.2383C43.3391 17.2383 43.5337 17.2129 43.7877 17.1621C44.0416 17.1113 44.2785 17.0436 44.4986 16.959C44.7186 16.8574 44.8456 16.7643 44.8795 16.6797C45.0149 16.1888 45.0826 15.4863 45.0826 14.5723V5.38086C45.0826 3.95898 45.0064 3.13802 44.8541 2.91797C44.7186 2.63021 43.9146 2.48633 42.442 2.48633C41.6125 2.48633 41.0031 2.6556 40.6138 2.99414C40.2245 3.31576 39.9029 3.93359 39.649 4.84766C39.6321 4.94922 39.5474 5 39.3951 5C39.0904 5 38.8703 4.93229 38.7349 4.79688L39.2173 0.9375C39.5897 1.02214 39.9198 1.08984 40.2076 1.14062C40.4953 1.17448 40.7492 1.19141 40.9693 1.19141C42.4927 1.22526 43.7115 1.25911 44.6255 1.29297C45.5565 1.3099 46.2759 1.32682 46.7837 1.34375C47.3085 1.34375 47.6978 1.34375 47.9517 1.34375C48.2056 1.34375 48.4087 1.34375 48.5611 1.34375C48.7304 1.32682 48.925 1.31836 49.1451 1.31836C49.3651 1.30143 49.7037 1.28451 50.1607 1.26758C50.6177 1.23372 51.2694 1.20833 52.1158 1.19141C52.3358 1.19141 52.5897 1.17448 52.8775 1.14062C53.1653 1.08984 53.4953 1.02214 53.8677 0.9375L54.3502 4.82227C54.2317 4.94076 54.0031 5 53.6646 5C53.5292 5 53.4446 4.95768 53.4107 4.87305C53.1737 3.94206 52.8606 3.31576 52.4712 2.99414C52.0819 2.6556 51.4726 2.48633 50.6431 2.48633C49.0858 2.48633 48.2649 2.63021 48.1802 2.91797C48.0279 3.39193 47.9517 4.1875 47.9517 5.30469V14.4707C47.9517 15.3848 48.0279 16.1211 48.1802 16.6797C48.1972 16.7474 48.3072 16.832 48.5103 16.9336C48.7304 17.0182 48.9673 17.0944 49.2212 17.1621C49.4752 17.2129 49.6529 17.2383 49.7545 17.2383C49.8222 17.2383 49.856 17.3906 49.856 17.6953C49.856 17.7799 49.8476 17.8561 49.8306 17.9238C49.8306 17.9915 49.8222 18.0508 49.8052 18.1016C49.1789 18.0508 48.6034 18.0085 48.0787 17.9746C47.5539 17.9408 47.0546 17.9238 46.5806 17.9238C46.2759 17.9238 45.8781 17.9408 45.3873 17.9746C44.9133 17.9915 44.4647 18.0085 44.0416 18.0254C43.6184 18.0592 43.3391 18.0846 43.2037 18.1016ZM56.7247 15.7402C55.1335 14.0814 54.338 12.0586 54.338 9.67188C54.338 8.48698 54.5496 7.37826 54.9727 6.3457C55.3959 5.29622 55.9799 4.38216 56.7247 3.60352C57.4695 2.80794 58.3328 2.1901 59.3145 1.75C60.2963 1.29297 61.3458 1.06445 62.463 1.06445C63.5802 1.06445 64.6296 1.29297 65.6114 1.75C66.5932 2.1901 67.4565 2.80794 68.2012 3.60352C68.963 4.38216 69.5554 5.29622 69.9786 6.3457C70.4018 7.37826 70.6134 8.48698 70.6134 9.67188C70.6134 12.0586 69.8178 14.0814 68.2266 15.7402C67.1264 16.8913 65.8907 17.653 64.5196 18.0254C63.1485 18.4147 61.7774 18.4147 60.4063 18.0254C59.0522 17.653 57.8249 16.8913 56.7247 15.7402ZM62.8692 16.9844C63.8341 16.9844 64.6466 16.6797 65.3067 16.0703C65.9838 15.444 66.5001 14.6146 66.8555 13.582C67.211 12.5326 67.3887 11.39 67.3887 10.1543C67.3887 8.86784 67.2195 7.64062 66.8809 6.47266C66.6609 5.71094 66.3223 5.01693 65.8653 4.39062C65.4252 3.7474 64.8835 3.23958 64.2403 2.86719C63.614 2.49479 62.8946 2.30859 62.0821 2.30859C61.1173 2.30859 60.2963 2.61328 59.6192 3.22266C58.9591 3.83203 58.4512 4.65299 58.0958 5.68555C57.7572 6.7181 57.588 7.86068 57.588 9.11328C57.588 10.3828 57.7657 11.5931 58.1212 12.7441C58.3581 13.5059 58.6967 14.2083 59.1368 14.8516C59.5769 15.4948 60.1101 16.0111 60.7364 16.4004C61.3796 16.7897 62.0906 16.9844 62.8692 16.9844ZM71.5406 18.1016C71.4898 18.0169 71.4645 17.8646 71.4645 17.6445C71.4645 17.3737 71.4898 17.2383 71.5406 17.2383C71.693 17.2383 71.8961 17.2129 72.15 17.1621C72.4039 17.1113 72.6409 17.0436 72.8609 16.959C73.0979 16.8743 73.2333 16.7812 73.2672 16.6797C73.3688 16.375 73.4195 15.6048 73.4195 14.3691V4.77148C73.4195 3.80664 73.3688 3.11263 73.2672 2.68945C73.2333 2.58789 73.0979 2.49479 72.8609 2.41016C72.6409 2.30859 72.3954 2.22396 72.1246 2.15625C71.8707 2.08854 71.676 2.05469 71.5406 2.05469C71.4729 2.05469 71.4391 1.92773 71.4391 1.67383C71.4391 1.41992 71.4729 1.26758 71.5406 1.2168C73.318 1.26758 74.4436 1.29297 74.9176 1.29297C75.1546 1.29297 75.4169 1.29297 75.7047 1.29297C75.9924 1.27604 76.2971 1.25911 76.6188 1.24219L78.3453 1.2168C78.8531 1.2168 79.3525 1.26758 79.8434 1.36914C80.3512 1.45378 80.859 1.61458 81.3668 1.85156C82.1793 2.22396 82.8141 2.75716 83.2711 3.45117C83.7451 4.12826 83.982 4.93229 83.982 5.86328C83.982 6.65885 83.7789 7.4375 83.3727 8.19922C82.9495 8.96094 82.3147 9.61263 81.4684 10.1543C80.6389 10.679 79.6995 10.9414 78.65 10.9414C78.2945 10.9414 77.9391 10.8822 77.5836 10.7637C77.2281 10.6283 76.9827 10.4674 76.8473 10.2812C76.7288 10.1628 76.678 10.002 76.6949 9.79883C76.7288 9.57878 76.7711 9.46875 76.8219 9.46875C77.1773 9.63802 77.6513 9.72266 78.2438 9.72266C79.0563 9.72266 79.6995 9.39258 80.1734 8.73242C80.6474 8.05534 80.8844 7.20898 80.8844 6.19336C80.8844 5.05924 80.6559 4.16211 80.1988 3.50195C79.7418 2.8418 79.0393 2.51172 78.0914 2.51172C77.3635 2.51172 76.8727 2.57096 76.6188 2.68945C76.4156 2.79102 76.3141 3.67122 76.3141 5.33008V14.3945C76.3141 15.3763 76.3818 16.0957 76.5172 16.5527C76.551 16.6882 76.6949 16.8066 76.9488 16.9082C77.2197 17.0098 77.5074 17.0944 77.8121 17.1621C78.1168 17.2129 78.3453 17.2383 78.4977 17.2383C78.5654 17.2383 78.5992 17.3822 78.5992 17.6699C78.5992 17.8223 78.5823 17.9661 78.5484 18.1016C76.7034 18 75.5016 17.9492 74.943 17.9492C74.4859 17.9492 73.9697 17.9661 73.3941 18C72.8355 18.0169 72.387 18.0339 72.0484 18.0508L71.5406 18.1016ZM84.8839 18.0762C84.8162 18.0085 84.7823 17.89 84.7823 17.7207C84.7823 17.3991 84.8162 17.2383 84.8839 17.2383C85.0193 17.2383 85.214 17.2129 85.4679 17.1621C85.7218 17.1113 85.9588 17.0436 86.1788 16.959C86.3989 16.8574 86.5258 16.7643 86.5597 16.6797C86.6274 16.4089 86.6782 16.0957 86.712 15.7402C86.7459 15.3848 86.7628 14.987 86.7628 14.5469V4.74609C86.7628 3.76432 86.6951 3.05339 86.5597 2.61328C86.5258 2.51172 86.3989 2.41862 86.1788 2.33398C85.9757 2.24935 85.7472 2.18164 85.4933 2.13086C85.2563 2.06315 85.0701 2.0293 84.9347 2.0293C84.867 2.0293 84.8331 1.90234 84.8331 1.64844C84.8331 1.3776 84.85 1.22526 84.8839 1.19141L86.3058 1.26758C86.729 1.28451 87.1014 1.3099 87.423 1.34375C87.7615 1.36068 88.0408 1.36068 88.2609 1.34375L91.5109 1.19141C91.5616 1.34375 91.587 1.47917 91.587 1.59766C91.587 1.88542 91.5532 2.0293 91.4855 2.0293C91.3839 2.0293 91.2062 2.06315 90.9523 2.13086C90.6984 2.19857 90.4529 2.27474 90.2159 2.35938C89.9959 2.44401 89.8689 2.52865 89.8351 2.61328C89.7674 2.88411 89.7166 3.20573 89.6827 3.57812C89.6489 3.93359 89.632 4.35677 89.632 4.84766V14.3945C89.632 15.3255 89.7081 16.0872 89.8605 16.6797C89.8943 16.7474 90.0128 16.832 90.2159 16.9336C90.436 17.0182 90.6645 17.0944 90.9015 17.1621C91.1554 17.2129 91.3331 17.2383 91.4347 17.2383C91.5024 17.2383 91.5362 17.3991 91.5362 17.7207C91.5362 17.8223 91.5193 17.9408 91.4855 18.0762L88.2609 17.9238C87.6684 17.89 87.059 17.8984 86.4327 17.9492C85.8064 18 85.2902 18.0423 84.8839 18.0762ZM92.5905 18.0762C92.5228 18.0085 92.4889 17.8815 92.4889 17.6953C92.4889 17.3906 92.5058 17.2383 92.5397 17.2383C92.6751 17.2383 92.8698 17.2044 93.1237 17.1367C93.3945 17.069 93.6484 16.9844 93.8854 16.8828C94.1393 16.7643 94.3001 16.6458 94.3678 16.5273C94.5371 16.2734 94.6979 15.9857 94.8502 15.6641C95.0026 15.3255 95.1634 14.9531 95.3327 14.5469L100.055 3.12109C100.462 2.08854 100.775 1.47917 100.995 1.29297C101.113 1.17448 101.257 1.11523 101.426 1.11523C101.545 1.11523 101.646 1.15755 101.731 1.24219L107.063 14.5469C107.199 14.8685 107.325 15.1901 107.444 15.5117C107.579 15.8164 107.706 16.1126 107.825 16.4004C107.893 16.5697 108.045 16.722 108.282 16.8574C108.519 16.9759 108.764 17.069 109.018 17.1367C109.272 17.2044 109.467 17.2383 109.602 17.2383C109.67 17.2383 109.704 17.3906 109.704 17.6953C109.704 17.8815 109.687 18.0085 109.653 18.0762L106.454 17.9238L103.153 18.0762C103.085 18.0085 103.051 17.8477 103.051 17.5938C103.051 17.3568 103.085 17.2383 103.153 17.2383C103.356 17.2383 103.635 17.1875 103.991 17.0859C104.346 16.9844 104.558 16.8659 104.626 16.7305C104.676 16.6289 104.702 16.5189 104.702 16.4004C104.702 16.2311 104.659 16.0026 104.575 15.7148C104.49 15.4271 104.372 15.0716 104.219 14.6484L103.331 12.2871C103.263 12.2194 103.204 12.1855 103.153 12.1855C102.882 12.1686 102.561 12.1602 102.188 12.1602C101.833 12.1432 101.426 12.1348 100.969 12.1348C100.055 12.1348 99.0905 12.1602 98.0748 12.2109C97.9733 12.2109 97.9225 12.2448 97.9225 12.3125L96.9577 14.6738C96.7884 15.097 96.6614 15.4525 96.5768 15.7402C96.5091 16.0111 96.4752 16.2057 96.4752 16.3242C96.4752 16.5273 96.5683 16.6966 96.7545 16.832C96.8561 16.8997 97.0084 16.9674 97.2116 17.0352C97.4316 17.0859 97.6517 17.1367 97.8717 17.1875C98.0918 17.2214 98.2441 17.2383 98.3288 17.2383C98.3795 17.2552 98.4049 17.3737 98.4049 17.5938C98.4049 17.7122 98.3965 17.8138 98.3795 17.8984C98.3795 17.9661 98.3711 18.0254 98.3541 18.0762C97.7278 18.0423 97.2116 18.0085 96.8053 17.9746C96.416 17.9408 96.0521 17.9238 95.7135 17.9238C95.375 17.9238 94.9687 17.9323 94.4948 17.9492C94.0208 17.9661 93.386 18.0085 92.5905 18.0762ZM100.512 10.7637C101.122 10.7637 101.816 10.7383 102.594 10.6875L102.645 10.5859L100.715 5.50781L98.6334 10.5859C98.6334 10.6536 98.6504 10.6875 98.6842 10.6875C99.2767 10.7383 99.886 10.7637 100.512 10.7637Z" fill="black"></path>
</svg>
